# xmcd
#
# Track frame offsets: 
#        150
#        11877
#        22417
#        34397
#        45965
#        58383
#        69636
#        82851
#
# Disc length: 1255 seconds
#
# Revision: 0
# Processed by: cddbd v1.5.2PL0 Copyright (c) Steve Scherf et al.
# Submitted via: ExactAudioCopyFreeDBPlugin 1.0
#
DISCID=6c04e508
DTITLE=Patsy Cline - Pick Me Up On Your Way Down
DYEAR=2005
DGENRE=Country
TTITLE0=Walkin' After Midnight
TTITLE1=Pick Me Up On Your Way Down
TTITLE2=Today, Tomorrow, Forever
TTITLE3=Cry Not For Me
TTITLE4=A Poor Man's Roses Or A Rich Man's Gold
TTITLE5=There He Goes
TTITLE6=Life's Railway To Heaven
TTITLE7=Just Out Of Reach
EXTD=
EXTT0=
EXTT1=
EXTT2=
EXTT3=
EXTT4=
EXTT5=
EXTT6=
EXTT7=
PLAYORDER=
